<svg xmlns="http://www.w3.org/2000/svg" viewBox="0 0 496 403.47"><defs><style>.cls-1{fill:#e98300;}</style></defs><title>Asset 2</title><g id="Layer_2" data-name="Layer 2"><g id="Layer_1-2" data-name="Layer 1"><path class="cls-1" d="M0,227.47c1.32-9.35,2.36-18.75,4-28,8.19-45.94,25.15-87.9,56.8-123C79.44,55.8,101.55,39.1,123.28,22c9.14-7.2,18.22-14.47,27.69-22l15,16.23L146,32.43c-22.22,18.11-44.32,36.32-62.47,58.79-21.23,26.28-33.13,56-33.21,90,0,9.93,1.33,19.87,2.11,30.6,7.46-1,14.13-2.08,20.82-2.83,15.7-1.75,31.41-4.6,47.14-4.78,51.63-.61,86.2,28.79,95.3,79.78,8.74,49-17.84,96-64.31,112.91-8,2.92-16.79,3.84-25.21,5.71-1.08.24-2.14.58-3.21.88H112a9,9,0,0,0-2.22-.81c-29.2-2.48-53-15.52-72.31-37.15-18.63-20.89-28.2-46-33.41-73.09-1.65-8.59-2.73-17.3-4.06-26Z"/><path class="cls-1" d="M391,403.47c-6.32-1.16-12.75-1.89-18.93-3.55-38.05-10.19-63-35.13-78.12-70.62-11.69-27.41-15.61-56.32-15.09-85.9.89-50.31,13.43-97.35,40.28-140.2C334.93,78,356.66,58.34,379.56,39.88c16.08-13,32.29-25.75,48.45-38.6A22.32,22.32,0,0,1,429.94.07l14.89,16.17c-8.42,6.85-16.68,13.53-24.9,20.25-22.45,18.38-44.5,37.15-62,60.61-24.6,33-33,69.91-26.72,110.37.2,1.28.58,2.53,1,4.26,11.59-1.64,22.93-3.12,34.23-4.86,20-3.08,40.08-4.86,60,0,36.76,8.92,57.11,33.82,66.43,69.19,1.17,4.43,2.07,8.94,3.09,13.41v25a10.53,10.53,0,0,0-.89,2.22c-6.8,43.39-35.91,74.64-78.6,84.24-4.79,1.08-9.67,1.7-14.51,2.54Z"/></g></g></svg>