<?xml version="1.0"?>
<svg xmlns="http://www.w3.org/2000/svg" xmlns:xlink="http://www.w3.org/1999/xlink" xmlns:svgjs="http://svgjs.com/svgjs" version="1.1" width="512" height="512" x="0" y="0" viewBox="0 0 512 512" style="enable-background:new 0 0 512 512" xml:space="preserve" class=""><g><g xmlns="http://www.w3.org/2000/svg"><path d="m504.5 136.349h-134.18l-98.41-98.41c-4.082-4.066-9.707-6.59-15.91-6.59s-11.828 2.523-15.902 6.597c-.007-.007-98.418 98.403-98.418 98.403h-134.18c-4.142 0-7.5 3.358-7.5 7.5v329.303c0 4.142 3.358 7.5 7.5 7.5h497c4.143 0 7.5-3.358 7.5-7.5v-329.303c0-4.142-3.357-7.5-7.5-7.5zm-7.5 30h-159.787c-9.777 0-18.114-6.271-21.21-15h180.997zm-241-120c4.136 0 7.5 3.364 7.5 7.5s-3.364 7.5-7.5 7.5-7.5-3.364-7.5-7.5 3.364-7.5 7.5-7.5zm-20.301 17.194c3.628 7.567 11.364 12.806 20.301 12.806s16.673-5.238 20.301-12.805l72.805 72.805h-186.213zm64.769 87.806c3.484 17.096 18.635 30 36.745 30h159.787v15h-241c-20.784 0-41.596-4.913-60.187-14.208-20.662-10.331-43.793-15.792-66.895-15.792h-44.305c-4.142 0-7.5 3.358-7.5 7.5s3.358 7.5 7.5 7.5h44.305c20.785 0 41.597 4.913 60.187 14.208 20.663 10.331 43.794 15.792 66.895 15.792h241v15h-482v-45h39.613c4.142 0 7.5-3.358 7.5-7.5s-3.358-7.5-7.5-7.5h-39.613v-15zm-285.468 90h482v134.303h-482zm0 224.302v-75h482v15h-356.321c-12.407 0-22.5 10.093-22.5 22.5s10.093 22.5 22.5 22.5h356.321v15zm482-45v15h-356.321c-4.135 0-7.5-3.364-7.5-7.5s3.365-7.5 7.5-7.5z" fill="rgb(198 2 36)" data-original="#000000" style="" class=""/><path d="m311.509 271.528c-20.402 0-37 16.598-37 37s16.598 37 37 37 37-16.598 37-37-16.598-37-37-37zm0 59c-12.131 0-22-9.869-22-22s9.869-22 22-22 22 9.869 22 22-9.869 22-22 22z" fill="rgb(198 2 36)" data-original="#000000" style="" class=""/><path d="m420.357 278.475c-.804-3.929-4.16-6.83-8.164-7.056-3.985-.222-7.664 2.281-8.902 6.095-.028.086-.055.173-.08.26l-10.523 36.917-10.914-36.993c-.026-.088-.054-.176-.083-.263-1.275-3.803-4.961-6.271-8.966-6.007-4.004.267-7.331 3.205-8.108 7.234l-10.413 57.695c-.735 4.076 1.973 7.977 6.049 8.713 4.073.732 7.978-1.972 8.713-6.049l5.792-32.096 9.57 32.437c.026.09.055.179.084.268 1.213 3.607 4.575 6.023 8.378 6.022 3.866-.02 7.227-2.474 8.406-6.108.028-.086.055-.173.08-.261l9.238-32.409 6.158 32.223c.777 4.07 4.712 6.735 8.774 5.959 4.068-.777 6.736-4.706 5.958-8.774z" fill="rgb(198 2 36)" data-original="#000000" style="" class=""/><path d="m102.152 271.93c-4.074-.733-7.978 1.972-8.713 6.049l-5.792 32.095-9.57-32.436c-.026-.089-.054-.177-.083-.265-1.211-3.609-4.574-6.025-8.378-6.025-3.868.02-7.228 2.475-8.407 6.11-.028.085-.054.172-.079.258l-9.238 32.408-6.158-32.222c-.777-4.068-4.704-6.736-8.774-5.959-4.069.777-6.736 4.706-5.959 8.774l11.047 57.802c.8 3.93 4.156 6.833 8.161 7.061.168.009.335.014.502.014 3.806 0 7.217-2.454 8.404-6.109.028-.086.055-.173.08-.26l10.523-36.917 10.914 36.992c.026.089.054.178.083.266 1.278 3.805 4.978 6.283 8.97 6.004 4.004-.269 7.33-3.208 8.103-7.233l10.414-57.695c.735-4.075-1.973-7.976-6.05-8.712z" fill="rgb(198 2 36)" data-original="#000000" style="" class=""/><path d="m199.426 330.602h-13.247v-51.697c0-4.142-3.358-7.5-7.5-7.5s-7.5 3.358-7.5 7.5v59.197c0 4.142 3.358 7.5 7.5 7.5h20.747c4.142 0 7.5-3.358 7.5-7.5s-3.358-7.5-7.5-7.5z" fill="rgb(198 2 36)" data-original="#000000" style="" class=""/><path d="m267.053 324.046c-3.171-2.664-7.902-2.252-10.566.92-.517.615-1.073 1.189-1.649 1.703-2.968 2.643-6.76 3.983-11.271 3.983-12.199 0-22.123-9.924-22.123-22.123s9.924-22.124 22.123-22.124c4.434 0 8.709 1.305 12.364 3.774 3.433 2.319 8.095 1.416 10.414-2.016 2.318-3.433 1.416-8.095-2.017-10.414-6.144-4.15-13.322-6.344-20.761-6.344-20.47 0-37.123 16.653-37.123 37.124 0 20.47 16.653 37.123 37.123 37.123 8.184 0 15.53-2.69 21.249-7.783 1.115-.994 2.178-2.09 3.157-3.256 2.664-3.173 2.252-7.903-.92-10.567z" fill="rgb(198 2 36)" data-original="#000000" style="" class=""/><path d="m150.416 286.405c4.142 0 7.5-3.358 7.5-7.5s-3.358-7.5-7.5-7.5h-24.736c-4.142 0-7.5 3.358-7.5 7.5v58.706c0 4.142 3.358 7.5 7.5 7.5h24.736c4.142 0 7.5-3.358 7.5-7.5s-3.358-7.5-7.5-7.5h-17.236v-14.353h15.413c4.142 0 7.5-3.358 7.5-7.5s-3.358-7.5-7.5-7.5h-15.413v-14.353z" fill="rgb(198 2 36)" data-original="#000000" style="" class=""/><path d="m473.634 330.189h-17.236v-14.353h15.412c4.143 0 7.5-3.358 7.5-7.5s-3.357-7.5-7.5-7.5h-15.412v-14.353h17.236c4.143 0 7.5-3.358 7.5-7.5s-3.357-7.5-7.5-7.5h-24.736c-4.143 0-7.5 3.358-7.5 7.5v58.706c0 4.142 3.357 7.5 7.5 7.5h24.736c4.143 0 7.5-3.358 7.5-7.5s-3.358-7.5-7.5-7.5z" fill="rgb(198 2 36)" data-original="#000000" style="" class=""/></g></g></svg>
